<svg width="48" height="48" viewBox="0 0 48 48" fill="none" xmlns="http://www.w3.org/2000/svg">
<path d="M24.0001 6L24.629 4.74221L24.0001 4.42776L23.3712 4.74221L24.0001 6ZM42.0001 15H43.4064V14.1309L42.629 13.7422L42.0001 15ZM42.0001 33L42.629 34.2578L43.4064 33.8691V33H42.0001ZM24.0001 42L23.3712 43.2578L24.0001 43.5722L24.629 43.2578L24.0001 42ZM6.00014 33H4.59389V33.8691L5.37124 34.2578L6.00014 33ZM6.00014 15L5.37124 13.7422L4.59389 14.1309V15H6.00014ZM32.5939 26C32.5939 26.7766 33.2235 27.4062 34.0001 27.4062C34.7768 27.4062 35.4064 26.7766 35.4064 26H32.5939ZM34.0001 19H35.4064V18.1309L34.629 17.7422L34.0001 19ZM16.629 8.74221C15.9344 8.39488 15.0897 8.67645 14.7423 9.37111C14.395 10.0658 14.6766 10.9105 15.3712 11.2578L16.629 8.74221ZM22.5939 41C22.5939 41.7766 23.2235 42.4062 24.0001 42.4062C24.7768 42.4062 25.4064 41.7766 25.4064 41H22.5939ZM23.3712 7.25779L41.3712 16.2578L42.629 13.7422L24.629 4.74221L23.3712 7.25779ZM40.5939 15V33H43.4064V15H40.5939ZM41.3712 31.7422L23.3712 40.7422L24.629 43.2578L42.629 34.2578L41.3712 31.7422ZM24.629 40.7422L6.62903 31.7422L5.37124 34.2578L23.3712 43.2578L24.629 40.7422ZM7.40639 33V15H4.59389V33H7.40639ZM6.62903 16.2578L24.629 7.25779L23.3712 4.74221L5.37124 13.7422L6.62903 16.2578ZM41.3712 13.7422L23.3712 22.7422L24.629 25.2578L42.629 16.2578L41.3712 13.7422ZM24.629 22.7422L6.62903 13.7422L5.37124 16.2578L23.3712 25.2578L24.629 22.7422ZM35.4064 26V19H32.5939V26H35.4064ZM34.629 17.7422L16.629 8.74221L15.3712 11.2578L33.3712 20.2578L34.629 17.7422ZM25.4064 41V24H22.5939V41H25.4064Z" fill="black"/>
</svg>
